<svg xmlns="http://www.w3.org/2000/svg" viewBox="0 0 1024 1024">
  <g fill="currentColor">
    <g transform="matrix(0.970296 -0.241922 0.241922 0.970296 -106.125342 115.678446)">
      <path d="M482.798 339.197 419.35 323.377c-52.481-13.085-105.713 18.9-118.798 71.381L248 605.534V342c0-39.738 32.262-72 72-72h196c7.022 0 13.81 1.007 20.229 2.885-16.2 8.864-30.08 22.395-39.389 39.904z" />
    </g>
    <g transform="matrix(0.970296 0.241922 -0.241922 0.970296 136.542519 -132.049575)">
      <path d="M436 365.426V342c0-39.738 32.262-72 72-72h196c39.738 0 72 32.262 72 72v263.534l-52.552-210.776c-13.086-52.481-66.317-84.466-118.798-71.381z" />
    </g>
    <path d="M717 426v246c0 39.738-32.262 72-72 72H379c-39.738 0-72-32.262-72-72V426c0-39.738 32.262-72 72-72h266c39.738 0 72 32.262 72 72Z" />
  </g>
</svg>
